<?xml version="1.0" standalone="no"?>
<!DOCTYPE svg PUBLIC "-//W3C//DTD SVG 20010904//EN"
 "http://www.w3.org/TR/2001/REC-SVG-20010904/DTD/svg10.dtd">
<svg version="1.0" xmlns="http://www.w3.org/2000/svg"
 width="698.000000pt" height="357.000000pt" viewBox="0 0 698.000000 357.000000"
 preserveAspectRatio="xMidYMid meet">

<g transform="translate(0.000000,357.000000) scale(0.100000,-0.100000)"
fill="#000000" stroke="none">
<path d="M3230 1980 c-24 -24 -25 -38 -4 -68 15 -21 21 -22 180 -22 95 0 174
4 185 10 13 7 19 21 19 45 0 24 -6 38 -19 45 -11 6 -89 10 -180 10 -148 0
-163 -2 -181 -20z"/>
<path d="M3223 1754 c-15 -24 -15 -29 -2 -53 14 -25 18 -26 117 -29 121 -3
142 5 142 53 0 47 -20 55 -139 55 -97 0 -101 -1 -118 -26z"/>
<path d="M3226 1538 c-21 -30 -20 -44 4 -68 19 -19 33 -20 253 -20 194 0 236
3 255 16 27 18 29 55 4 77 -16 15 -49 17 -260 17 -238 0 -241 0 -256 -22z"/>
</g>
</svg>
